<?xml version="1.0" encoding="UTF-8" standalone="no"?>
<!-- Created with Inkscape (http://www.inkscape.org/) -->

<svg
        xmlns:dc="http://purl.org/dc/elements/1.1/"
        xmlns:cc="http://creativecommons.org/ns#"
        xmlns:rdf="http://www.w3.org/1999/02/22-rdf-syntax-ns#"
        xmlns:svg="http://www.w3.org/2000/svg"
        xmlns="http://www.w3.org/2000/svg"
        version="1.1"
        width="2000"
        height="2000"
        viewBox="0 0 2000 2000"
        id="svg2">
    <defs
            id="defs4" />
    <metadata
            id="metadata7">
        <rdf:RDF>
            <cc:Work
                    rdf:about="">
                <dc:format>image/svg+xml</dc:format>
                <dc:type
                        rdf:resource="http://purl.org/dc/dcmitype/StillImage" />
                <dc:title></dc:title>
                <cc:license
                        rdf:resource="https://github.com/bpmn-io/bpmn-font/blob/master/LICENSE" />
                <dc:creator>
                    <cc:Agent>
                        <dc:title>Jörg Dotzki</dc:title>
                    </cc:Agent>
                </dc:creator>
                <dc:subject>
                    <rdf:Bag>
                        <rdf:li>BPMN</rdf:li>
                        <rdf:li>bpmn-io</rdf:li>
                        <rdf:li>bpmn.io</rdf:li>
                        <rdf:li>Font</rdf:li>
                    </rdf:Bag>
                </dc:subject>
            </cc:Work>
        </rdf:RDF>
    </metadata>
    <g
            transform="translate(0,947.63784)"
            id="layer1">
        <path
                d="m 1000.0312,339.09375 c -157.81086,0 -315.35438,12.99487 -438.74995,39.90625 -61.69778,13.45569 -114.84298,30.17303 -156.5,52.125 -40.12412,21.14419 -72.77527,48.43293 -82.84375,87.84375 -0.69331,2.05845 -1.16812,4.16133 -1.46875,6.3125 l -1.09375,5.28125 0.71875,3.5625 c -0.51535,315.04128 0,614.8334 0,938.875 l 0.71875,3.5 c 8.633,41.8917 42.31172,70.423 83.96875,92.375 41.65702,21.952 94.80222,38.6693 156.5,52.125 123.39557,26.9114 280.93909,39.9062 438.74995,39.9062 157.8127,0 315.3858,-12.9948 438.7813,-39.9062 61.6978,-13.4557 114.843,-30.173 156.5,-52.125 41.657,-21.952 75.3045,-50.4833 83.9375,-92.375 l 0.75,-3.5 c 0,-309.8582 0.01,-647.32928 0,-940.84375 0.096,-1.4965 0.096,-3.0035 0,-4.5 l 0,-0.65625 -0.125,-0.59375 c -0.3037,-2.86398 -0.9751,-5.67172 -1.9688,-8.375 -10.3369,-38.91405 -42.7834,-65.92741 -82.5937,-86.90625 -41.657,-21.95197 -94.8022,-38.66931 -156.5,-52.125 -123.3955,-26.91138 -280.9686,-39.90625 -438.7813,-39.90625 z m 0,70 c 153.9084,0 308.0741,13.06424 423.8438,38.3125 57.8849,12.62413 106.2064,28.4885 138.7812,45.65625 26.0035,13.70124 39.6169,27.31726 45.1876,37.5 -5.5707,10.18265 -19.1876,23.79918 -45.1876,37.5 -32.5747,17.16775 -80.8963,33.03212 -138.7812,45.65625 -115.7697,25.24826 -269.9351,38.3125 -423.8438,38.3125 -153.90654,0 -308.07399,-13.06424 -423.8437,-38.3125 -57.88486,-12.62413 -106.17173,-28.4885 -138.75,-45.65625 -25.99925,-13.70082 -39.61798,-27.31735 -45.1875,-37.5 5.56919,-10.18274 19.18743,-23.79876 45.1875,-37.5 32.57827,-17.16775 80.86514,-33.03212 138.75,-45.65625 115.76971,-25.24826 269.93716,-38.3125 423.8437,-38.3125 z m -609.93745,212.625 c 4.76495,2.85244 9.66013,5.63198 14.6875,8.28125 41.65702,21.95198 94.80222,38.66931 156.5,52.125 123.39557,26.91138 280.93909,39.90625 438.74995,39.90625 157.8127,0 315.3858,-12.99487 438.7813,-39.90625 61.6978,-13.45569 114.843,-30.17302 156.5,-52.125 5.0273,-2.64927 9.9225,-5.42881 14.6875,-8.28125 l 0,82.0625 c 0.179,35.74287 0.3832,51.85229 0.5312,57.9375 -0.1295,7.6425 -0.3109,19.30969 -0.5312,38.0625 l 0,82.0625 c 0.1063,29.41993 0.2085,42.93289 0.2812,50.75 -0.072,8.11566 -0.1553,20.4482 -0.2812,45.21875 l 0,486.8125 c -3.4205,10.409 -16.9606,26.3029 -47.3438,42.3125 -32.5747,17.1677 -80.8963,33.0313 -138.7812,45.6563 -115.7697,25.2448 -269.9351,38.3124 -423.8438,38.3124 -153.90654,0 -308.07399,-13.0676 -423.8437,-38.3124 -57.88486,-12.625 -106.17173,-28.4886 -138.75,-45.6563 -30.38057,-16.0096 -43.92331,-31.9035 -47.34375,-42.3125 l 0,-486.8125 c -0.14352,-86.90246 0.0278,-46.32123 0.0937,-37.15625 0.003,-5.03311 -0.0115,-21.08046 -0.0937,-58.8125 l 0,-82.0625 c 0.17238,-125.24245 -0.65539,10.11838 0,-96 l 0,-82.0625 z m 1084.68745,200.375 c -0.1551,0.34135 -0.3569,0.70994 -0.5,1.03125 0.159,-0.0467 0.3109,-0.10908 0.4688,-0.15625 0.01,-0.29029 0.027,-0.58469 0.031,-0.875 z m -112.8437,213.34375 c -0.1016,0.4126 -0.1759,0.6926 -0.3437,1.375 0.1443,-0.045 0.2929,-0.08 0.4374,-0.125 0.057,-0.4555 0.024,-0.869 -0.094,-1.25 z m -110.5937,6.6875 c -0.091,0.026 -0.191,0.068 -0.2813,0.094 0.094,0 0.1866,-0 0.2813,0 -0,-0.03 9e-4,-0.065 0,-0.094 z"
                transform="translate(0,-947.63784)"
                id="path4136"
                style="font-size:medium;font-style:normal;font-variant:normal;font-weight:normal;font-stretch:normal;text-indent:0;text-align:start;text-decoration:none;line-height:normal;letter-spacing:normal;word-spacing:normal;text-transform:none;direction:ltr;block-progression:tb;writing-mode:lr-tb;text-anchor:start;baseline-shift:baseline;color:#000000;fill:#000000;fill-opacity:1;fill-rule:nonzero;stroke:none;visibility:visible;display:inline;overflow:visible;enable-background:accumulate;font-family:sans-serif" />
    </g>
</svg>
